<?xml version="1.0" encoding="utf-8"?>
<!-- Generator: Adobe Illustrator 24.3.0, SVG Export Plug-In . SVG Version: 6.00 Build 0)  -->
<svg version="1.1" xmlns="http://www.w3.org/2000/svg" xmlns:xlink="http://www.w3.org/1999/xlink" x="0px" y="0px"
	 viewBox="0 0 400 200" style="enable-background:new 0 0 400 200;" xml:space="preserve">
<style type="text/css">
	.st0{fill:#FFFFFF;}
	.st1{fill:#322E2D;}
</style>
<g id="Layer_1">
</g>
<g id="s_1">
	<g id="s_1_1_">
		<path class="st0" d="M199.28,105.36c0.36-0.46,0.99-1.29,1.14-2.54c0.1-0.86-0.07-1.75-0.5-2.68c-1.34-2.86-3.62-4.56-6.58-5.3
			c-4.13-1.04-8.26-2.07-12.33-3.34c-2.16-0.67-4.31-1.37-6.2-2.65c-3.41-2.3-5.33-5.48-5.37-9.71c-0.03-3.07,1.35-5.54,3.27-7.76
			c3.19-3.69,7.25-5.52,12.04-5.79c0.5-0.03,1-0.07,1.5-0.08c1.94-0.03,3.69,1.99,3.43,3.95c-0.16,1.2-1.14,2.16-2.41,2.32
			c-1.4,0.17-2.83,0.08-4.22,0.49c-1.95,0.58-3.65,1.55-5.01,3.1c-2.23,2.55-1.97,6.03,0.6,8.22c1.58,1.35,3.49,1.97,5.45,2.43
			c4.78,1.1,9.53,2.3,14.12,4.09c2.67,1.04,5.11,2.43,6.88,4.79c3.33,4.46,2.96,10.55-0.91,14.73c-2.82,3.05-6.39,4.6-10.38,5.29
			c-2.06,0.36-4.14,0.55-6.24,0.39c-0.37-0.03-0.75-0.1-1.11-0.2c-1.96-0.59-2.8-2.52-1.91-4.4c0.44-0.92,1.27-1.25,2.18-1.39
			c2.04-0.31,4.11-0.47,6.14-0.89c2.39-0.5,3.62-1.02,4.06-1.25C198.4,106.43,199.05,105.66,199.28,105.36z"/>
		<path class="st0" d="M178.89,108.81c1.59,0,3.11,1.67,3.13,3.43c0.02,1.9-1.62,3.41-3.7,3.4c-1.7,0-3.36-1.67-3.37-3.37
			C174.94,110.46,176.81,108.81,178.89,108.81z"/>
		<path class="st0" d="M195.19,65.41c1.52,0,3.03,1.72,3.02,3.45c-0.01,1.8-1.64,3.37-3.48,3.37c-1.89-0.01-3.59-1.62-3.59-3.42
			C191.13,66.98,193,65.42,195.19,65.41z"/>
	</g>
</g>
<g id="k">
	<g id="k_1_">
		<path class="st0" d="M223.69,89.24c0.01-3,1.18-5.06,2.91-6.82c2.2-2.24,4.66-4.18,7.03-6.23c3.66-3.16,7.34-6.29,11.02-9.44
			c1.03-0.88,2.08-1.72,3.55-1.62c1.28,0.09,2.21,0.75,2.8,1.86c0.55,1.03,0.26,2.02-0.34,2.93c-0.59,0.9-1.44,1.53-2.24,2.21
			c-4.96,4.26-9.93,8.51-14.89,12.76c-0.73,0.63-1.45,1.28-2.07,2.03c-1.13,1.38-1.18,2.26-0.16,3.71c0.9,1.28,2.05,2.35,3.15,3.45
			c2.68,2.68,5.38,5.34,8.05,8.03c2.52,2.54,5.02,5.11,7.54,7.64c0.95,0.95,1.36,2.12,1.45,3.42c0.04,0.59-0.16,1.14-0.64,1.52
			c-0.59,0.47-1.21,0.91-1.8,1.38c-0.3,0.24-0.52,0.08-0.79-0.06c-1.92-0.97-3.44-2.45-4.96-3.94c-5.3-5.21-10.64-10.37-15.85-15.67
			c-1.32-1.34-2.5-2.79-3.19-4.59C223.9,90.85,223.67,89.87,223.69,89.24z"/>
		<path class="st0" d="M222.33,90.51c0,6.87,0,13.74,0,20.62c0,0.4,0,0.81-0.04,1.21c-0.25,2.35-1.46,3.39-3.82,3.32
			c-2-0.06-3.18-1.27-3.32-3.3c-0.1-1.42-0.09-2.84-0.09-4.26c0-11.92,0-23.84,0-35.76c0-1.27-0.03-2.54,0.1-3.81
			c0.29-2.84,3.42-4.33,5.74-2.69c0.95,0.67,1.26,1.7,1.4,2.8c0.04,0.29,0.02,0.59,0.02,0.89c0,7,0,14,0,21
			C222.31,90.51,222.32,90.51,222.33,90.51z"/>
	</g>
</g>
<g id="i">
	<g id="i_1_">
		<path id="i_2_" class="st0" d="M258.11,111.03c0.12-8.14,0.07-16.42,0.04-24.69c0-1.25-0.15-2.49,0.02-3.74
			c0.21-1.54,0.83-2.22,2.33-2.45c1.18-0.17,2.37-0.19,3.56,0.04c0.96,0.18,1.53,0.78,1.78,1.74c0.29,1.13,0.11,2.28,0.11,3.42
			c0,8.34,0,16.68,0,25.02c0,1.01,0.17,2.02,0.03,3.05c-0.23,1.61-0.96,2.36-2.55,2.38c-1.09,0.01-2.17,0.06-3.26-0.06
			c-1.06-0.12-1.66-0.64-1.9-1.72C258.07,113.07,258.03,112.12,258.11,111.03z"/>
		<path id="i_point" class="st0" d="M265.98,70.87c0.04,1.59-0.1,3.18,0.05,4.76c0.05,0.6-0.37,1.07-1.14,1.09
			c-1.88,0.05-3.76,0.07-5.63,0c-0.88-0.03-1.22-0.55-1.17-1.47c0.15-2.73,0.17-5.46,0.01-8.19c-0.06-0.99,0.22-1.39,1.19-1.51
			c1.84-0.24,3.7-0.24,5.55-0.01c0.99,0.12,1.14,0.39,1.14,1.39C265.98,68.24,265.98,69.55,265.98,70.87z"/>
	</g>
</g>
<g id="l">
	<path id="l_3_" class="st0" d="M297.82,90.36c0,6.92,0,13.83,0,20.75c0,0.66-0.07,1.31-0.21,1.95c-0.58,2.64-2.65,3.37-4.73,3.08
		c-1.96-0.27-3.19-1.61-3.46-3.63c-0.07-0.52-0.11-1.06-0.11-1.58c-0.01-7.32,0-14.64,0-21.96c0-6.47,0-12.94,0-19.41
		c0-0.55,0.05-1.1,0.17-1.64c0.41-1.8,1.44-2.74,3.29-2.98c0.79-0.1,1.58-0.09,2.37,0.08c1.16,0.26,1.91,0.96,2.31,2.09
		c0.4,1.11,0.37,2.25,0.37,3.39C297.82,77.13,297.82,83.75,297.82,90.36z"/>
	<path id="l_2_" class="st0" d="M274.23,90.64c0-6.91,0-13.83,0-20.74c0-0.97,0.1-1.91,0.55-2.78c0.64-1.25,1.75-1.78,3.06-1.9
		c1.51-0.14,3-0.08,4.09,1.21c0.83,0.97,0.9,2.22,0.9,3.43c0,5.79-0.09,11.58-0.04,17.37c0.07,7.89,0.01,15.78,0.04,23.67
		c0,0.72-0.05,1.44-0.19,2.15c-0.45,2.27-1.87,3.46-4.13,3.43c-2.17-0.02-3.79-1.42-4.16-3.57c-0.1-0.54-0.13-1.09-0.13-1.65
		C274.24,104.39,274.23,97.52,274.23,90.64z"/>
</g>
<g id="point_1">
	<path id="point_2_3_" class="st0" d="M311.92,70.9c-0.13,2.82-0.48,6.1-0.71,9.4c-0.09,1.3-0.65,1.84-2.23,2.26
		c-0.88,0.23-2.12-0.26-2.64-1.06c-0.2-0.31-0.25-0.66-0.29-1.03c-0.5-4.53-0.89-9.06-1.21-13.6c-0.06-0.83-0.04-0.83,0.8-0.83
		c1.98,0,3.97,0.01,5.95-0.01c0.49,0,0.67,0.14,0.62,0.66C312.09,67.92,312.04,69.17,311.92,70.9z"/>
</g>
<g id="s">
	<g id="s_2_1_">
		<path class="st0" d="M336.32,115.18c-0.68,0.01-1.73,0.04-2.75-0.23c-2.01-0.52-2.92-2.59-1.95-4.45
			c0.45-0.85,1.25-1.15,2.12-1.28c2.08-0.33,4.19-0.46,6.26-0.91c2-0.44,3.99-0.91,5.62-2.3c1.93-1.65,2.37-3.82,1.23-6.1
			c-1.5-3-4.07-4.49-7.18-5.21c-4.68-1.07-9.32-2.3-13.87-3.83c-2.09-0.7-4.03-1.7-5.7-3.22c-4.22-3.83-4.83-10.05-1.4-14.62
			c3.32-4.43,7.71-6.74,13.17-7c0.44-0.02,0.87-0.07,1.31-0.09c1.79-0.06,3.45,1.51,3.54,3.33c0.08,1.56-0.95,2.72-2.54,2.89
			c-1.24,0.13-2.5,0.06-3.73,0.37c-2.05,0.52-3.85,1.49-5.3,3.07c-2.35,2.55-2.03,6.21,0.73,8.36c1.5,1.17,3.26,1.79,5.08,2.2
			c4.74,1.07,9.46,2.23,14.02,3.96c2,0.76,3.92,1.68,5.55,3.12c4.41,3.89,5.41,10.34,1.25,15.61c-2.42,3.07-5.75,4.68-9.45,5.59
			C340.47,114.89,338.58,115.06,336.32,115.18z"/>
		<path class="st0" d="M326.07,108.71c1.45-0.01,2.97,1.7,2.98,3.37c0.02,1.78-1.58,3.36-3.41,3.38c-1.89,0.02-3.62-1.55-3.64-3.3
			C321.98,110.25,323.78,108.73,326.07,108.71z"/>
		<path class="st0" d="M341.79,72.57c-1.9,0-3.59-1.55-3.61-3.32c-0.02-1.87,1.84-3.43,4.08-3.43c1.48,0,2.97,1.73,2.97,3.44
			C345.22,71.03,343.64,72.56,341.79,72.57z"/>
	</g>
</g>
<g id="smoke_rocket">
	<g id="rocket_smoke">
		<path class="st0" d="M65.1,144.83c-13.06,9.79-26.12,19.57-39.18,29.36c11.02-12,22.05-23.99,33.07-35.99
			c0.52,1.42,1.05,2.83,1.57,4.25C62.07,143.24,63.59,144.03,65.1,144.83z"/>
		<path class="st0" d="M65.46,157.69c-11.05,5.59-22.11,11.18-33.16,16.77c8.99-6.27,17.99-12.54,26.98-18.82
			C61.34,156.33,63.4,157.01,65.46,157.69z"/>
		<path class="st0" d="M47.8,136.57c-6.66,10.45-13.31,20.89-19.97,31.34c7.13-8.33,14.26-16.66,21.39-24.99
			C48.75,140.8,48.27,138.68,47.8,136.57z"/>
	</g>
</g>
<g id="rocket">
	<path id="rocket_1_" class="st0" d="M114.67,93.69c-2.25,0.03-5.44,0.12-9.25,0.36c-3.08,0.2-5.16,0.33-7.47,0.66
		c-3.12,0.45-7.31,1.05-11.73,3.14c-8.65,4.08-12.82,11.3-13.66,12.83c-1.78,3.21-2.64,6.17-3.09,8.22l-0.78,0.48
		c-0.28-2.32-0.56-4.63-0.83-6.94c-5.9,0.64-11.79,1.28-17.69,1.92c1.59,6.93,3.17,13.87,4.76,20.8c2.77-3.5,5.54-7.01,8.31-10.52
		c0.53,1.92,1.09,3.88,1.7,5.87c0.65,2.14,1.32,4.22,2,6.23c3.77,1.56,7.54,3.11,11.3,4.67c-3.79,2.37-7.58,4.73-11.37,7.1
		c6.72,2.34,13.43,4.68,20.15,7.02c1.29-5.79,2.57-11.58,3.86-17.37c-2.27-0.53-4.54-1.06-6.81-1.59l0.56-0.72
		c2.09-0.22,5.12-0.75,8.51-2.16c1.61-0.67,9.24-4.02,14.25-12.17c2.56-4.17,3.63-8.26,4.42-11.31c0.59-2.27,0.95-4.32,1.48-7.35
		c0.66-3.77,1.1-6.92,1.38-9.16C114.67,93.7,114.67,93.7,114.67,93.69L114.67,93.69z M91.2,123.65c-5.08,0-9.2-4.12-9.2-9.2
		c0-5.08,4.12-9.2,9.2-9.2c5.08,0,9.2,4.12,9.2,9.2C100.4,119.53,96.28,123.65,91.2,123.65z"/>
</g>
<g id="shape_1">
	<path id="shape_1_1_" class="st0" d="M56.67,112.05c8.6-7.71,17.2-15.42,25.8-23.13c7.5,0.93,15,1.86,22.49,2.79
		c-6.94,0.28-13.89,0.56-20.83,0.84c-6.09,5.78-12.18,11.57-18.28,17.35C62.79,110.63,59.73,111.34,56.67,112.05z"/>
</g>
<g id="shape_2">
	<path id="shape_3_1_" class="st0" d="M68.82,68.86c0.08-3.03,0.54-5.95,2.4-8.46c1.31-1.76,3.05-2.93,5.02-3.79
		c0.31-0.13,0.51-0.07,0.65,0.22c0.77,1.64,1.75,3.16,2.6,4.75c0.57,1.08,0.39,2.12-0.42,3.03c-0.37,0.41-0.77,0.79-1.15,1.19
		c-0.91,0.96-1.2,2.11-0.81,3.37c0.67,2.19,1.97,3.84,4.23,4.47c1.19,0.33,2.33-0.03,3.41-0.58c3.26-1.66,6.52-3.34,9.8-4.96
		c1.51-0.75,3.02-1.53,4.71-1.79c4.04-0.61,7.69,0.4,10.96,2.84c3.65,2.73,5.34,6.49,5.15,11.03c-0.21,5.17-2.71,8.95-7.2,11.38
		c-0.44,0.24-0.72,0.19-0.98-0.28c-1.04-1.86-2.11-3.71-3.19-5.55c-0.21-0.36-0.15-0.59,0.1-0.87c0.92-1.03,1.7-2.15,2.23-3.44
		c0.93-2.29,0.37-4.1-1.68-5.43c-1.92-1.24-3.87-1.38-5.95-0.37c-3.82,1.85-7.58,3.86-11.49,5.52c-7.83,3.34-16.52-1.35-18.19-9.8
		C68.85,70.52,68.78,69.69,68.82,68.86z"/>
</g>
<g id="point_2">
	<path id="point" class="st0" d="M112.33,66.6c1.36-0.95,2.68-1.84,4.15-2.45c1.59-0.66,3.09-0.5,4.5,0.51
		c0.97,0.7,1.8,1.54,2.62,2.4c0.22,0.22,0.36,0.44,0,0.7c-1.07,0.78-2.15,1.54-3.35,2.13c-1.58,0.77-3.05,0.61-4.49-0.36
		C114.51,68.7,113.44,67.68,112.33,66.6z"/>
</g>
<g id="shape_3">
	<path id="shape_2_1_" class="st0" d="M89.18,54.79c0-3.85,0-7.71,0-11.56c0-0.22-0.06-0.51,0.14-0.64
		c0.19-0.12,0.35,0.13,0.51,0.23c6.46,4.17,12.92,8.36,19.38,12.54c0.59,0.38,0.59,0.39-0.04,0.77c-1.29,0.77-2.55,1.6-3.88,2.3
		c-1.6,0.85-3.2,0.94-4.83,0.07c-1.13-0.6-2.27-1.18-3.41-1.76c-0.16-0.08-0.32-0.23-0.5-0.12c-0.21,0.12-0.08,0.34-0.06,0.51
		c0.15,1.42,0.19,2.84-0.18,4.23c-0.71,2.73-2.61,4.27-5.11,5.17c-0.51,0.18-1.05,0.3-1.58,0.45c-0.08,0.02-0.21,0.06-0.32-0.01
		c-0.27-0.16-0.15-0.79-0.13-0.92C89.33,65.09,89.18,61.08,89.18,54.79z"/>
</g>
<g id="shape_4">
	<path id="shape_4_1_" class="st0" d="M103.2,24.79c14.3,0.85,24.78,6.91,29.66,10.24c4.98,3.4,8.25,6.78,9.48,8.1
		c3.51,3.77,6.48,8.03,8.92,12.77c3.22,6.25,5.27,12.88,6.03,19.88c1.57,14.52-1.73,27.77-10.33,39.55
		c-5.47,7.51-12.25,13.49-20.49,17.71c-5.12,2.62-10.54,4.36-16.17,5.42c-3.9,0.74-7.83,1.13-11.81,1.06
		c-0.76-0.01-1.49-0.14-2.22-0.34c-0.31-0.09-0.44-0.24-0.12-0.48c2.43-1.83,4.38-4.17,6.58-6.25c2.16-2.04,4.7-3.18,7.59-3.78
		c8.9-1.87,16.66-6,23.2-12.41c7.12-6.97,11.71-15.4,13.51-25.26c2.58-14.14-0.43-27.01-9.29-38.31
		c-7.45-9.5-17.16-15.39-28.91-17.55C94.5,32.51,81.38,35.6,69.79,44.6c-8.71,6.76-14.45,15.6-17.04,26.46
		c-0.7,2.92-2.31,5.23-4.48,7.19c-1.9,1.71-3.96,3.23-5.78,5.03c-0.1,0.1-0.21,0.25-0.35,0.2c-0.22-0.08-0.14-0.32-0.16-0.49
		c-0.52-7,0.57-13.76,3.11-20.27c2.9-7.45,6.9-14.21,12.35-20.03c4.13-4.42,8.88-8.01,14.2-10.83c6.44-3.42,12.33-5.1,16.32-5.92
		C95.09,24.46,100.8,24.64,103.2,24.79z"/>
</g>
<g id="academy_agency">
	<g id="academy_agency_1_">
		<path class="st0" d="M354.04,155.93H160.06c-4.69,0-8.48-3.8-8.48-8.48v-12.23c0-4.69,3.8-8.48,8.48-8.48h193.98
			c4.69,0,8.48,3.8,8.48,8.48v12.23C362.52,152.14,358.72,155.93,354.04,155.93z"/>
		<g>
			<path class="st1" d="M169.64,147.6l-0.79-2.64h-3.75l-0.84,2.64h-3.49l4.32-13.41h4.54l4.39,13.41H169.64z M165.83,142.02h2.27
				l-1.13-3.89L165.83,142.02z"/>
			<path class="st1" d="M182.6,142.48l3.93,0.23c-0.18,1.64-0.82,2.91-1.9,3.78c-1.08,0.88-2.42,1.32-4,1.32
				c-1.9,0-3.44-0.6-4.61-1.81c-1.17-1.21-1.75-2.87-1.75-4.99c0-2.1,0.55-3.8,1.66-5.09c1.11-1.29,2.65-1.94,4.64-1.94
				c1.85,0,3.28,0.49,4.27,1.47c1,0.98,1.56,2.29,1.69,3.91l-4.01,0.21c0-0.9-0.18-1.55-0.54-1.95c-0.36-0.4-0.78-0.6-1.27-0.6
				c-1.35,0-2.03,1.3-2.03,3.91c0,1.46,0.18,2.45,0.53,2.98c0.35,0.52,0.85,0.79,1.48,0.79C181.83,144.7,182.47,143.96,182.6,142.48
				z"/>
			<path class="st1" d="M195.59,147.6l-0.79-2.64h-3.75l-0.84,2.64h-3.49l4.32-13.41h4.54l4.39,13.41H195.59z M191.78,142.02h2.27
				l-1.13-3.89L191.78,142.02z"/>
			<path class="st1" d="M201.26,147.6v-13.41h5.42c2.35,0,4.11,0.67,5.28,2c1.17,1.34,1.75,2.88,1.75,4.64c0,2-0.63,3.63-1.88,4.89
				c-1.26,1.25-2.88,1.88-4.89,1.88H201.26z M205.56,144.51h1.12c0.71,0,1.31-0.33,1.8-0.99c0.49-0.66,0.73-1.56,0.73-2.7
				c0-0.98-0.22-1.82-0.65-2.53c-0.43-0.71-1.06-1.06-1.88-1.06h-1.12V144.51z"/>
			<path class="st1" d="M226.07,144.39v3.2h-10.54v-13.41h10.54v3.09h-6.32v1.95h5.11v2.98h-5.11v2.19H226.07z"/>
			<path class="st1" d="M243,134.18v13.41h-3.99V138l-2.59,9.59h-2.73L231,138v9.59h-3.22v-13.41h5.62l2.03,7.12l1.94-7.12H243z"/>
			<path class="st1" d="M257.07,134.18l-4.38,7.73v5.68h-4.18v-5.68l-4.71-7.73h4.7l2.45,4.42l2.35-4.42H257.07z"/>
			<path class="st1" d="M267.39,140.98v3.09h-5.2v-3.09H267.39z"/>
			<path class="st1" d="M281.87,147.6l-0.79-2.64h-3.75l-0.84,2.64H273l4.32-13.41h4.55l4.39,13.41H281.87z M278.06,142.02h2.27
				l-1.13-3.89L278.06,142.02z"/>
			<path class="st1" d="M299.2,140.08v7.52h-2.1c-0.17-0.56-0.36-1.03-0.56-1.41c-0.87,1.07-2.15,1.61-3.86,1.61
				c-1.81,0-3.29-0.6-4.45-1.81c-1.16-1.21-1.74-2.84-1.74-4.91c0-2,0.56-3.69,1.69-5.06c1.13-1.37,2.8-2.05,5.02-2.05
				c1.67,0,3.01,0.41,4.03,1.22c1.02,0.81,1.68,1.97,1.98,3.46l-4.17,0.39c-0.21-1.4-0.84-2.09-1.92-2.09
				c-1.41,0-2.11,1.28-2.11,3.85c0,1.55,0.23,2.58,0.68,3.07c0.45,0.49,1,0.74,1.64,0.74c0.52,0,0.96-0.15,1.33-0.45
				c0.37-0.3,0.55-0.71,0.56-1.24h-2.32v-2.85H299.2z"/>
			<path class="st1" d="M312,144.39v3.2h-10.54v-13.41H312v3.09h-6.32v1.95h5.11v2.98h-5.11v2.19H312z"/>
			<path class="st1" d="M325.68,147.6h-3.5l-3.84-5.93c-0.49-0.76-0.99-1.68-1.49-2.77c0.23,0.86,0.34,1.6,0.34,2.2v6.5h-3.49
				v-13.41h4.06l3.26,4.91c0.65,0.98,1.14,1.83,1.48,2.58c-0.22-1.15-0.33-2.32-0.33-3.52v-3.97h3.5V147.6z"/>
			<path class="st1" d="M335.83,142.48l3.93,0.23c-0.18,1.64-0.82,2.91-1.9,3.78c-1.08,0.88-2.42,1.32-4,1.32
				c-1.9,0-3.44-0.6-4.61-1.81c-1.17-1.21-1.75-2.87-1.75-4.99c0-2.1,0.55-3.8,1.66-5.09c1.11-1.29,2.65-1.94,4.64-1.94
				c1.85,0,3.28,0.49,4.27,1.47c1,0.98,1.56,2.29,1.69,3.91l-4.01,0.21c0-0.9-0.18-1.55-0.54-1.95c-0.36-0.4-0.78-0.6-1.27-0.6
				c-1.35,0-2.03,1.3-2.03,3.91c0,1.46,0.18,2.45,0.53,2.98c0.35,0.52,0.85,0.79,1.48,0.79
				C335.05,144.7,335.69,143.96,335.83,142.48z"/>
			<path class="st1" d="M352.95,134.18l-4.38,7.73v5.68h-4.18v-5.68l-4.71-7.73h4.7l2.45,4.42l2.35-4.42H352.95z"/>
		</g>
	</g>
</g>
</svg>
